<svg width="934" height="757" viewBox="0 0 934 757" fill="none" xmlns="http://www.w3.org/2000/svg">
<g clip-path="url(#clip0_2_2)" filter="url(#filter0_d_2_2)">
<rect width="926" height="749" transform="translate(4)" fill="white"/>
<path d="M241.905 310.915C288.285 310.915 325.884 273.316 325.884 226.936C325.884 180.555 288.285 142.956 241.905 142.956C195.525 142.956 157.926 180.555 157.926 226.936C157.926 273.316 195.525 310.915 241.905 310.915Z" fill="#FF6584"/>
<path d="M930 200.96V421.84C930.001 464.651 921.57 507.043 905.187 546.596C888.804 586.149 864.791 622.087 834.519 652.359C804.247 682.631 768.309 706.644 728.756 723.027C689.204 739.41 646.811 747.841 604 747.84H4V526.96C4 408.93 66.73 305.54 160.68 248.33C176.87 238.462 193.895 230.036 211.56 223.15C221.956 219.089 232.557 215.574 243.32 212.62C243.53 212.55 243.75 212.49 243.96 212.44C247.14 211.57 250.34 210.75 253.56 209.98C253.74 209.93 253.91 209.89 254.09 209.85C273.935 205.122 294.181 202.266 314.56 201.32C316.97 201.21 319.38 201.12 321.81 201.07C322.68 201.04 323.56 201.02 324.45 201.02C326.29 200.98 328.14 200.96 330 200.96H930Z" fill="#3F3D56"/>
<path d="M436 605.5C197.914 605.5 4.819 669.701 4.00952 749H867.991C867.181 669.701 674.086 605.5 436 605.5Z" fill="#F2F2F2"/>
<g opacity="0.1">
<path opacity="0.1" d="M356 714.222C400.183 714.222 436 704.273 436 692C436 679.727 400.183 669.778 356 669.778C311.817 669.778 276 679.727 276 692C276 704.273 311.817 714.222 356 714.222Z" fill="black"/>
</g>
<g opacity="0.1">
<path opacity="0.1" d="M529 674.222C573.183 674.222 609 664.273 609 652C609 639.727 573.183 629.778 529 629.778C484.817 629.778 449 639.727 449 652C449 664.273 484.817 674.222 529 674.222Z" fill="black"/>
</g>
<g opacity="0.1">
<path opacity="0.1" d="M356 712C395.765 712 428 703.046 428 692C428 680.954 395.765 672 356 672C316.236 672 284 680.954 284 692C284 703.046 316.236 712 356 712Z" fill="black"/>
</g>
<g opacity="0.1">
<path opacity="0.1" d="M529 672C568.765 672 601 663.046 601 652C601 640.954 568.765 632 529 632C489.235 632 457 640.954 457 652C457 663.046 489.235 672 529 672Z" fill="black"/>
</g>
<path d="M142 297C145.866 297 149 293.866 149 290C149 286.134 145.866 283 142 283C138.134 283 135 286.134 135 290C135 293.866 138.134 297 142 297Z" fill="#F2F2F2"/>
<path d="M744 571C747.866 571 751 567.866 751 564C751 560.134 747.866 557 744 557C740.134 557 737 560.134 737 564C737 567.866 740.134 571 744 571Z" fill="#F2F2F2"/>
<path d="M414 346C417.866 346 421 342.866 421 339C421 335.134 417.866 332 414 332C410.134 332 407 335.134 407 339C407 342.866 410.134 346 414 346Z" fill="#F2F2F2"/>
<path d="M761 301C763.209 301 765 299.209 765 297C765 294.791 763.209 293 761 293C758.791 293 757 294.791 757 297C757 299.209 758.791 301 761 301Z" fill="#FF6584"/>
<path d="M158 501C160.209 501 162 499.209 162 497C162 494.791 160.209 493 158 493C155.791 493 154 494.791 154 497C154 499.209 155.791 501 158 501Z" fill="#FF6584"/>
<path d="M98 581.322H96.178V579.5H95.822V581.322H94V581.678H95.822V583.5H96.178V581.678H98V581.322Z" fill="#F2F2F2"/>
<path d="M683 433.322H681.178V431.5H680.822V433.322H679V433.678H680.822V435.5H681.178V433.678H683V433.322Z" fill="#F2F2F2"/>
<path d="M834 403.322H832.178V401.5H831.822V403.322H830V403.678H831.822V405.5H832.178V403.678H834V403.322Z" fill="#F2F2F2"/>
<path d="M509 483.322H507.178V481.5H506.822V483.322H505V483.678H506.822V485.5H507.178V483.678H509V483.322Z" fill="#F2F2F2"/>
<path d="M790 493.322H788.178V491.5H787.822V493.322H786V493.678H787.822V495.5H788.178V493.678H790V493.322Z" fill="#F2F2F2"/>
<path d="M451 536.322H449.178V534.5H448.822V536.322H447V536.678H448.822V538.5H449.178V536.678H451V536.322Z" fill="#F2F2F2"/>
<path d="M579 538.322H577.178V536.5H576.822V538.322H575V538.678H576.822V540.5H577.178V538.678H579V538.322Z" fill="#F2F2F2"/>
<path d="M100 368.322H98.178V366.5H97.822V368.322H96V368.678H97.822V370.5H98.178V368.678H100V368.322Z" fill="#F2F2F2"/>
<g opacity="0.1">
<path opacity="0.1" d="M691.747 295.071L688.183 315.485C661.399 245.958 618.795 288.666 618.059 289.414C622.462 283.492 628.293 278.782 635.009 275.724C641.724 272.665 649.105 271.357 656.463 271.922C663.821 272.486 670.915 274.906 677.085 278.954C683.255 283.002 688.3 288.546 691.747 295.071V295.071Z" fill="black"/>
</g>
<path d="M485 352.322H483.178V350.5H482.822V352.322H481V352.678H482.822V354.5H483.178V352.678H485V352.322Z" fill="#F2F2F2"/>
<path d="M649 296.322H647.178V294.5H646.822V296.322H645V296.678H646.822V298.5H647.178V296.678H649V296.322Z" fill="#F2F2F2"/>
<path d="M631 313.322H629.178V311.5H628.822V313.322H627V313.678H628.822V315.5H629.178V313.678H631V313.322Z" fill="#F2F2F2"/>
<path d="M560 271C562.209 271 564 269.209 564 267C564 264.791 562.209 263 560 263C557.791 263 556 264.791 556 267C556 269.209 557.791 271 560 271Z" fill="#F2F2F2"/>
<path d="M362.958 295.194C362.958 574.238 327.869 574.238 284.598 574.238C262.227 574.238 242.045 574.238 227.772 535.693C223.669 524.615 220.044 510.33 217.005 491.943C210.162 450.61 206.238 388.496 206.238 295.194C206.238 259.316 210.485 224.144 217.005 191.293C220.14 175.478 223.801 160.212 227.772 145.653C232.63 127.828 237.953 111.067 243.325 95.7302C246.926 85.4179 250.563 75.7396 254.092 66.803C270.398 25.5535 284.598 -3.05176e-05 284.598 -3.05176e-05C284.598 -3.05176e-05 362.958 141.083 362.958 295.194Z" fill="#F2F2F2"/>
<g opacity="0.1">
<path opacity="0.1" d="M254.092 66.803V553.303H243.325V95.7303C246.926 85.4179 250.563 75.7396 254.092 66.803Z" fill="black"/>
</g>
<path d="M282.206 235.677C305.991 235.677 325.273 216.395 325.273 192.609C325.273 168.823 305.991 149.541 282.206 149.541C258.42 149.541 239.138 168.823 239.138 192.609C239.138 216.395 258.42 235.677 282.206 235.677Z" fill="#3F3D56"/>
<path d="M376.716 547.919C367.14 524.348 354.844 520.281 346.807 520.634V516.815H221.193V520.634C213.156 520.281 200.86 524.348 191.284 547.919C175.732 586.202 200.855 652 200.855 652C200.855 652 187.429 560.233 232.013 559.629C235.874 564.666 240.613 568.964 246 572.319V597H318V574.566C325.038 570.996 331.185 565.892 335.987 559.629C380.571 560.233 367.145 652 367.145 652C367.145 652 392.268 586.202 376.716 547.919Z" fill="#42B1FF"/>
<path d="M282.206 226.106C300.706 226.106 315.703 211.109 315.703 192.609C315.703 174.109 300.706 159.112 282.206 159.112C263.705 159.112 248.708 174.109 248.708 192.609C248.708 211.109 263.705 226.106 282.206 226.106Z" fill="#42B1FF"/>
<path d="M850.01 200.96H848.01C848.154 222.619 856.852 243.344 872.21 258.618C887.568 273.891 908.34 282.476 930 282.5V280.5C908.87 280.477 888.606 272.104 873.623 257.205C858.639 242.306 850.152 222.089 850.01 200.96V200.96Z" fill="#42B1FF"/>
<path d="M813.01 200.96H811.01C811.162 232.43 823.762 262.561 846.056 284.771C868.351 306.982 898.53 319.467 930 319.5V317.5C899.061 317.465 869.392 305.19 847.473 283.355C825.553 261.52 813.164 231.899 813.01 200.96V200.96Z" fill="#42B1FF"/>
<path d="M775 200.96H773C773.25 287.32 843.58 357.5 930 357.5V355.5C844.68 355.5 775.25 286.22 775 200.96Z" fill="#42B1FF"/>
</g>
<defs>
<filter id="filter0_d_2_2" x="0" y="0" width="934" height="757" filterUnits="userSpaceOnUse" color-interpolation-filters="sRGB">
<feFlood flood-opacity="0" result="BackgroundImageFix"/>
<feColorMatrix in="SourceAlpha" type="matrix" values="0 0 0 0 0 0 0 0 0 0 0 0 0 0 0 0 0 0 127 0" result="hardAlpha"/>
<feOffset dy="4"/>
<feGaussianBlur stdDeviation="2"/>
<feComposite in2="hardAlpha" operator="out"/>
<feColorMatrix type="matrix" values="0 0 0 0 0 0 0 0 0 0 0 0 0 0 0 0 0 0 0.25 0"/>
<feBlend mode="normal" in2="BackgroundImageFix" result="effect1_dropShadow_2_2"/>
<feBlend mode="normal" in="SourceGraphic" in2="effect1_dropShadow_2_2" result="shape"/>
</filter>
<clipPath id="clip0_2_2">
<rect width="926" height="749" fill="white" transform="translate(4)"/>
</clipPath>
</defs>
</svg>
